<svg width="20" height="20" viewBox="0 0 24 24" fill="none" xmlns="http://www.w3.org/2000/svg">
<g id="Interface / Settings">
<path id="Vector" d="M20.3502 8.92309L19.984 8.71936C19.9271 8.68773 19.8987 8.67185 19.8712 8.6554C19.5981 8.49181 19.3681 8.26539 19.2002 7.99498C19.1833 7.96777 19.1667 7.93965 19.1341 7.88326L19.134 7.88304C19.1014 7.82672 19.0851 7.7984 19.0699 7.77014C18.9193 7.48882 18.8382 7.17557 18.8333 6.85647C18.8329 6.82768 18.8334 6.79822 18.8343 6.74538L18.8346 6.72633L18.8416 6.30933C18.8531 5.6233 18.8588 5.28033 18.7628 4.97278C18.6779 4.7007 18.5359 4.44986 18.3461 4.23718C18.132 3.9972 17.8351 3.8261 17.2426 3.4847L17.2395 3.48293L16.7457 3.19837C16.1529 2.85674 15.8564 2.68599 15.5416 2.62085C15.2632 2.56322 14.9756 2.56553 14.6982 2.62781C14.3854 2.69803 14.0929 2.87319 13.5088 3.22291L13.5043 3.22559L13.1505 3.43745C13.0946 3.47095 13.0662 3.48766 13.0382 3.50325C12.7599 3.65797 12.4488 3.74406 12.1305 3.75427C12.0985 3.7553 12.0658 3.7553 12.0006 3.7553H11.9998C11.9349 3.7553 11.9027 3.7553 11.8707 3.75427C11.5518 3.74402 11.2396 3.65754 10.9609 3.50218C10.9339 3.48709 10.907 3.47094 10.8549 3.43967L10.8489 3.43606L10.4928 3.22229L10.4901 3.22068C9.90254 2.86794 9.60848 2.6914 9.29406 2.62085C9.01549 2.55835 8.72654 2.55625 8.44707 2.61463C8.13117 2.68061 7.83377 2.85319 7.23924 3.19824L6.75158 3.48128C6.16014 3.82454 5.86485 3.9961 5.65148 4.23625C5.46272 4.44871 5.32134 4.69897 5.23689 4.97034C5.14143 5.27707 5.14681 5.619 5.15832 6.30274L5.16546 6.7274C5.16655 6.7917 5.16727 6.82388 5.1668 6.85551C5.16206 7.17525 5.08064 7.48918 4.92953 7.771C4.91459 7.79887 4.89848 7.82674 4.86633 7.88241C4.83414 7.93812 4.81807 7.96591 4.80139 7.9928C4.63266 8.26465 4.40119 8.49214 4.12638 8.65601C4.0992 8.67222 4.07129 8.6878 4.015 8.719L3.65344 8.91936L3.65331 8.91943C3.05183 9.25276 2.75114 9.41939 2.53234 9.65678C2.33877 9.86681 2.1922 10.1159 2.10293 10.3872C2.00217 10.6935 2.00295 11.0369 2.0045 11.7229L2.00451 11.7256L2.00579 12.2877L2.0058 12.2938C2.00734 12.9729 2.00812 13.3134 2.10894 13.6171C2.19841 13.8866 2.34425 14.1339 2.53674 14.3427C2.75408 14.5784 3.05236 14.7443 3.64807 15.0757L3.65002 15.0768L4.00836 15.2761L4.01333 15.2789C4.07103 15.311 4.10078 15.3275 4.12938 15.3448C4.4017 15.5087 4.63068 15.7353 4.79797 16.0056C4.81604 16.0348 4.83338 16.0651 4.86805 16.1257L4.86808 16.1257C4.90235 16.1856 4.91968 16.2155 4.93553 16.2455C5.0822 16.5232 5.16146 16.8315 5.16681 17.1455C5.16739 17.1794 5.16685 17.214 5.16569 17.283L5.15881 17.6905L5.15878 17.692C5.14722 18.3771 5.14143 18.7198 5.23738 19.0271C5.32232 19.2992 5.46463 19.55 5.65441 19.7627C5.86894 20.0031 6.16585 20.1745 6.76037 20.5171L7.25408 20.8016C7.84693 21.1432 8.14379 21.314 8.45853 21.3791C8.73697 21.4367 9.02443 21.4344 9.30187 21.3721C9.61481 21.3018 9.90743 21.1266 10.492 20.7766L10.4957 20.7744L10.8495 20.5625C10.9055 20.529 10.9337 20.5123 10.9617 20.4967C11.24 20.342 11.551 20.2559 11.8693 20.2457C11.9013 20.2446 11.9339 20.2446 11.9992 20.2446C12.0646 20.2446 12.0977 20.2446 12.1298 20.2457C12.4488 20.2559 12.7605 20.3423 13.0392 20.4977C13.0673 20.5133 13.0954 20.5302 13.1515 20.5638L13.5076 20.7776L13.5082 20.778C14.0971 21.1316 14.3916 21.3083 14.7064 21.379C14.9849 21.4415 15.2734 21.4437 15.5528 21.3853C15.8688 21.3193 16.1663 21.1468 16.7609 20.8017L17.2485 20.5187C17.84 20.1754 18.1353 20.0038 18.3487 19.7637C18.5374 19.5512 18.6789 19.301 18.7633 19.0296C18.8588 18.7229 18.8532 18.381 18.8417 17.6972L18.8346 17.2726L18.8342 17.2511C18.8334 17.2007 18.8329 17.1724 18.8333 17.1445C18.838 16.8248 18.9193 16.5108 19.0704 16.229C19.0854 16.2011 19.1014 16.1733 19.1335 16.1178L19.1336 16.1176C19.1658 16.0619 19.1822 16.034 19.1989 16.0071C19.3676 15.7352 19.5988 15.5079 19.8737 15.344C19.8999 15.3283 19.9273 15.3132 19.9799 15.284L19.9855 15.2809L20.347 15.0806C20.9486 14.7472 21.2492 14.5806 21.468 14.3431C21.6615 14.1331 21.8078 13.8841 21.8971 13.6128C21.998 13.3061 21.9976 12.9622 21.996 12.2744L21.9947 11.7123C21.9932 11.0291 21.9924 10.6874 21.8912 10.3828C21.8018 10.1133 21.6558 9.86601 21.4633 9.65725C21.2457 9.42128 20.9472 9.25521 20.3502 8.92309Z" stroke="#0B0B0B" stroke-width="1.2" stroke-linecap="round" stroke-linejoin="round"/>
</g>
</svg>
